{
  "asset": {
    "version": "2.0",
    "generator": "THREE.GLTFExporter"
  },
  "scenes": [
    {
      "name": "AuxScene",
      "nodes": [
        3
      ]
    }
  ],
  "scene": 0,
  "nodes": [
    {
      "scale": [
        0.1,
        0.1,
        0.1
      ],
      "name": "heart_inner",
      "mesh": 0
    },
    {
      "scale": [
        0.1,
        0.1,
        0.1
      ],
      "name": "heart_outer",
      "mesh": 1
    },
    {
      "children": [
        0,
        1
      ]
    },
    {
      "children": [
        2
      ]
    }
  ],
  "bufferViews": [
    {
      "buffer": 0,
      "byteOffset": 0,
      "byteLength": 9420,
      "target": 34962,
      "byteStride": 12
    },
    {
      "buffer": 0,
      "byteOffset": 9420,
      "byteLength": 9420,
      "target": 34962,
      "byteStride": 12
    },
    {
      "buffer": 0,
      "byteOffset": 18840,
      "byteLength": 9408,
      "target": 34963
    },
    {
      "buffer": 0,
      "byteOffset": 28248,
      "byteLength": 9420,
      "target": 34962,
      "byteStride": 12
    },
    {
      "buffer": 0,
      "byteOffset": 37668,
      "byteLength": 9420,
      "target": 34962,
      "byteStride": 12
    },
    {
      "buffer": 0,
      "byteOffset": 47088,
      "byteLength": 9408,
      "target": 34963
    }
  ],
  "buffers": [
    {
      "byteLength": 56496,
      "uri": "data:application/octet-stream;base64,"
    }
  ],
  "accessors": [
    {
      "bufferView": 0,
      "componentType": 5126,
      "count": 785,
      "max": [
        40.83000183105469,
        42.88699722290039,
        40.56999969482422
      ],
      "min": [
        -40.83000183105469,
        -42.88699722290039,
        -40.56999969482422
      ],
      "type": "VEC3"
    },
    {
      "bufferView": 1,
      "componentType": 5126,
      "count": 785,
      "max": [
        0.9966820478439331,
        0.9953830242156982,
        0.9986622929573059
      ],
      "min": [
        -0.8617830276489258,
        -0.9990285634994507,
        -0.999674916267395
      ],
      "type": "VEC3"
    },
    {
      "bufferView": 2,
      "componentType": 5123,
      "count": 4704,
      "max": [
        784
      ],
      "min": [
        0
      ],
      "type": "SCALAR"
    },
    {
      "bufferView": 3,
      "componentType": 5126,
      "count": 785,
      "max": [
        45.44199752807617,
        48.790496826171875,
        45.958499908447266
      ],
      "min": [
        -45.44199752807617,
        -48.790496826171875,
        -45.958499908447266
      ],
      "type": "VEC3"
    },
    {
      "bufferView": 4,
      "componentType": 5126,
      "count": 785,
      "max": [
        0.9981401562690735,
        0.9467692375183105,
        0.9973140358924866
      ],
      "min": [
        -0.9247666597366333,
        -0.9982262253761292,
        -0.9929755330085754
      ],
      "type": "VEC3"
    },
    {
      "bufferView": 5,
      "componentType": 5123,
      "count": 4704,
      "max": [
        784
      ],
      "min": [
        0
      ],
      "type": "SCALAR"
    }
  ],
  "materials": [
    {
      "pbrMetallicRoughness": {
        "baseColorFactor": [
          0.8,
          0.8,
          0.8,
          1
        ],
        "metallicFactor": 0,
        "roughnessFactor": 1
      },
      "doubleSided": true
    },
    {
      "pbrMetallicRoughness": {
        "baseColorFactor": [
          0.8392156862745098,
          0.8274509803921568,
          0.8313725490196079,
          0.5
        ],
        "metallicFactor": 0,
        "roughnessFactor": 1
      },
      "alphaMode": "BLEND",
      "doubleSided": true
    }
  ],
  "meshes": [
    {
      "primitives": [
        {
          "mode": 1,
          "attributes": {
            "POSITION": 0,
            "NORMAL": 1
          },
          "indices": 2,
          "material": 0
        }
      ]
    },
    {
      "primitives": [
        {
          "mode": 4,
          "attributes": {
            "POSITION": 3,
            "NORMAL": 4
          },
          "indices": 5,
          "material": 1
        }
      ]
    }
  ],
  "animations": [
    {
      "name": "copper3d_heart_morph_heart_inner",
      "samplers": [],
      "channels": []
    },
    {
      "name": "copper3d_heart_morph_heart_outer",
      "samplers": [],
      "channels": []
    }
  ]
}