{
  "asset": {
    "version": "2.0",
    "generator": "THREE.GLTFExporter"
  },
  "scenes": [
    {
      "name": "AuxScene",
      "nodes": [
        3
      ]
    }
  ],
  "scene": 0,
  "nodes": [
    {
      "scale": [
        0.1,
        0.1,
        0.1
      ],
      "name": "heart_inner",
      "mesh": 0
    },
    {
      "scale": [
        0.1,
        0.1,
        0.1
      ],
      "name": "heart_outer",
      "mesh": 1
    },
    {
      "children": [
        0,
        1
      ]
    },
    {
      "children": [
        2
      ]
    }
  ],
  "bufferViews": [
    {
      "buffer": 0,
      "byteOffset": 0,
      "byteLength": 9420,
      "target": 34962,
      "byteStride": 12
    },
    {
      "buffer": 0,
      "byteOffset": 9420,
      "byteLength": 9420,
      "target": 34962,
      "byteStride": 12
    },
    {
      "buffer": 0,
      "byteOffset": 18840,
      "byteLength": 9408,
      "target": 34963
    },
    {
      "buffer": 0,
      "byteOffset": 28248,
      "byteLength": 9420,
      "target": 34962,
      "byteStride": 12
    },
    {
      "buffer": 0,
      "byteOffset": 37668,
      "byteLength": 9420,
      "target": 34962,
      "byteStride": 12
    },
    {
      "buffer": 0,
      "byteOffset": 47088,
      "byteLength": 9408,
      "target": 34963
    }
  ],
  "buffers": [
    {
      "byteLength": 56496,
      "uri": "data:application/octet-stream;base64,"
    }
  ],
  "accessors": [
    {
      "bufferView": 0,
      "componentType": 5126,
      "count": 785,
      "max": [
        38.64500045776367,
        37.1510009765625,
        36.83100128173828
      ],
      "min": [
        -38.64500045776367,
        -37.1510009765625,
        -36.83100128173828
      ],
      "type": "VEC3"
    },
    {
      "bufferView": 1,
      "componentType": 5126,
      "count": 785,
      "max": [
        0.9994635581970215,
        0.9963259100914001,
        0.9889333248138428
      ],
      "min": [
        -0.9655925035476685,
        -0.9964187741279602,
        -0.9969731569290161
      ],
      "type": "VEC3"
    },
    {
      "bufferView": 2,
      "componentType": 5123,
      "count": 4704,
      "max": [
        784
      ],
      "min": [
        0
      ],
      "type": "SCALAR"
    },
    {
      "bufferView": 3,
      "componentType": 5126,
      "count": 785,
      "max": [
        45.131500244140625,
        44.345497131347656,
        42.57400131225586
      ],
      "min": [
        -45.131500244140625,
        -44.345497131347656,
        -42.57400131225586
      ],
      "type": "VEC3"
    },
    {
      "bufferView": 4,
      "componentType": 5126,
      "count": 785,
      "max": [
        0.9992969036102295,
        0.9984529614448547,
        0.9971696734428406
      ],
      "min": [
        -0.8719866275787354,
        -0.9981714487075806,
        -0.9985067248344421
      ],
      "type": "VEC3"
    },
    {
      "bufferView": 5,
      "componentType": 5123,
      "count": 4704,
      "max": [
        784
      ],
      "min": [
        0
      ],
      "type": "SCALAR"
    }
  ],
  "materials": [
    {
      "pbrMetallicRoughness": {
        "baseColorFactor": [
          0.8,
          0.8,
          0.8,
          1
        ],
        "metallicFactor": 0,
        "roughnessFactor": 1
      },
      "doubleSided": true
    },
    {
      "pbrMetallicRoughness": {
        "baseColorFactor": [
          0.8392156862745098,
          0.8274509803921568,
          0.8313725490196079,
          0.5
        ],
        "metallicFactor": 0,
        "roughnessFactor": 1
      },
      "alphaMode": "BLEND",
      "doubleSided": true
    }
  ],
  "meshes": [
    {
      "primitives": [
        {
          "mode": 1,
          "attributes": {
            "POSITION": 0,
            "NORMAL": 1
          },
          "indices": 2,
          "material": 0
        }
      ]
    },
    {
      "primitives": [
        {
          "mode": 4,
          "attributes": {
            "POSITION": 3,
            "NORMAL": 4
          },
          "indices": 5,
          "material": 1
        }
      ]
    }
  ],
  "animations": [
    {
      "name": "copper3d_heart_morph_heart_inner",
      "samplers": [],
      "channels": []
    },
    {
      "name": "copper3d_heart_morph_heart_outer",
      "samplers": [],
      "channels": []
    }
  ]
}